<svg xmlns="http://www.w3.org/2000/svg" class="icon" viewBox="0 0 1024 1280" version="1.1" x="0px" y="0px"><path fill="#000000" d="M950.5 0H276.3c-15.7 0-28.4 12.7-28.4 28.4v129.3H73.5c-15.7 0-28.4 12.7-28.4 28.4v809.4c0 15.7 12.7 28.4 28.4 28.4h674.2c15.7 0 28.4-12.7 28.4-28.4V866.2h174.4c15.7 0 28.4-12.7 28.4-28.4V28.4c0-15.7-12.7-28.4-28.4-28.4zM721.2 969.1H100V212.7h621.2v756.4zM924 811.3H776.1V186.2c0-15.7-12.7-28.4-28.4-28.4H302.8V54.9H924v756.4z"/><path fill="#000000" d="M225.4 478.2c0 15.2 12.3 27.5 27.5 27.5h315.5c15.2 0 27.5-12.3 27.5-27.5s-12.3-27.5-27.5-27.5H252.8c-15.1 0-27.4 12.3-27.4 27.5z m342.9 197.9H252.8c-15.2 0-27.5 12.3-27.5 27.5s12.3 27.5 27.5 27.5h315.5c15.2 0 27.5-12.3 27.5-27.5s-12.3-27.5-27.5-27.5z"/><text x="0" y="1039" fill="#000000" font-size="5px" font-weight="bold" font-family="'Helvetica Neue', Helvetica, Arial-Unicode, Arial, Sans-serif">Created by Guan Yu</text><text x="0" y="1044" fill="#000000" font-size="5px" font-weight="bold" font-family="'Helvetica Neue', Helvetica, Arial-Unicode, Arial, Sans-serif">from the Noun Project</text></svg>